<svg width="1080" height="1080" viewBox="0 0 1080 1080" fill="none" xmlns="http://www.w3.org/2000/svg">
<g clip-path="url(#clip0_770_1238)">
<mask id="mask0_770_1238" style="mask-type:luminance" maskUnits="userSpaceOnUse" x="0" y="0" width="1080" height="1080">
<path d="M980 0H100C44.7715 0 0 44.7715 0 100V980C0 1035.23 44.7715 1080 100 1080H980C1035.23 1080 1080 1035.23 1080 980V100C1080 44.7715 1035.23 0 980 0Z" fill="white"/>
</mask>
<g mask="url(#mask0_770_1238)">
<path fill-rule="evenodd" clip-rule="evenodd" d="M570.169 217C546.144 217 526.669 236.494 526.669 260.542V433.775C526.669 459.426 518.744 484.45 503.981 505.416C480.707 538.467 442.833 558.126 402.437 558.126H293.5C269.476 558.126 250 577.621 250 601.668V818.458C250 842.506 269.476 862 293.5 862H509.831C533.856 862 553.331 842.506 553.331 818.458V670.339C553.331 640.4 562.582 611.193 579.813 586.722L582.859 582.396C610.023 543.82 654.228 520.873 701.378 520.873H786.5C810.525 520.873 830 501.379 830 477.332V260.542C830 236.494 810.525 217 786.501 217H570.169Z" fill="black"/>
</g>
</g>
<defs>
<clipPath id="clip0_770_1238">
<rect width="1080" height="1080" fill="white"/>
</clipPath>
</defs>
</svg>
